<svg xmlns="http://www.w3.org/2000/svg" viewBox="0 0 357.59 130.51"><defs><style>.cls-1,.cls-3{fill:#1d1d1b;}.cls-1,.cls-2{stroke:#1d1d1b;}.cls-1{stroke-linejoin:round;stroke-width:4px;}.cls-2{fill:none;stroke-linecap:round;stroke-miterlimit:10;stroke-width:6px;}</style></defs><title>logga cv elon te18 </title><g id="Lager_2" data-name="Lager 2"><g id="Lager_1-2" data-name="Lager 1"><path class="cls-1" d="M316.4,2H303.56a39.31,39.31,0,0,0-39.2,39.19h91.23A39.3,39.3,0,0,0,316.4,2Z"/><path class="cls-2" d="M310.86,41c0,39.66-12.08,71.75-27,71.75"/><path class="cls-3" d="M32.6,84.41A2.37,2.37,0,0,1,32,86a9.88,9.88,0,0,1-1.54,1.47,19.28,19.28,0,0,1-1.85,1.3l-1.56,1c-1.07.7-2.14,1.35-3.2,2a25.73,25.73,0,0,1-3.27,1.56,21.57,21.57,0,0,1-3.46,1,17.25,17.25,0,0,1-3.72.38l-.76.1a13.6,13.6,0,0,1-3.1-.36,10.78,10.78,0,0,1-2.87-1.09,9.45,9.45,0,0,1-2.37-1.87,8,8,0,0,1-1.61-2.75,17.25,17.25,0,0,1-.66-3c-.16-1.17-.28-2.38-.36-3.65s-.14-2.5-.18-3.72S1.36,76,1.33,75Q.61,60.53.19,46C.13,44.92.08,43.81.05,42.71s0-2.21,0-3.32a30.07,30.07,0,0,1,.33-4.83,7.15,7.15,0,0,1,1.33-3.27,5.56,5.56,0,0,1,2.87-1.85,17.41,17.41,0,0,1,5-.57q3.07,0,6.18.05t6.23,0c.63,0,1.27,0,1.9-.07a5.77,5.77,0,0,1,1.89.16,3.56,3.56,0,0,1,1,.31.93.93,0,0,1,.42.92A2.92,2.92,0,0,1,26,32.83a6.54,6.54,0,0,1-2.7,1.11A16.53,16.53,0,0,1,20,34.2l-2.77,0H9.19q-.94,0-1.89.09a5.9,5.9,0,0,0-.38,1.47,11.51,11.51,0,0,0-.1,1.57c0,3.44.09,6.84.26,10.18s.34,6.75.5,10.19q2.94-.24,5.83-.57t5.83-.75a6.26,6.26,0,0,0,.78,0,5.84,5.84,0,0,1,.73-.05,1.66,1.66,0,0,1,1.4.52,2.36,2.36,0,0,1,.41,1.47,9.41,9.41,0,0,1-.08,1.23,4.37,4.37,0,0,1-.3,1.14A2.42,2.42,0,0,1,21.09,62a5.26,5.26,0,0,1-1.71.6,11.47,11.47,0,0,1-2,.16c-.68,0-1.27,0-1.77,0-1.33.06-2.63.11-3.91.14s-2.57.08-3.86.14c0,.67.07,1.66.14,3s.13,2.82.21,4.48.17,3.37.29,5.14.22,3.43.35,5,.27,2.93.43,4.1a12.49,12.49,0,0,0,.47,2.37A2.78,2.78,0,0,0,11,88.46a4.1,4.1,0,0,0,1.75.31,11.08,11.08,0,0,0,3.7-.69,23.47,23.47,0,0,0,3.79-1.75A34.89,34.89,0,0,0,23.72,84a28.38,28.38,0,0,0,2.91-2.51c.35-.28.7-.58,1-.88a1.84,1.84,0,0,1,1.24-.45,2.54,2.54,0,0,1,1.37.43,4.78,4.78,0,0,1,1.18,1.07A5.18,5.18,0,0,1,32.29,83,3.66,3.66,0,0,1,32.6,84.41Z"/><path class="cls-3" d="M45.87,96.11a1.73,1.73,0,0,1-.33,1.09,2.54,2.54,0,0,1-.83.69,4.26,4.26,0,0,1-1.09.38,5.47,5.47,0,0,1-1.07.12,4.62,4.62,0,0,1-2.89-1A8.76,8.76,0,0,1,37.53,95a14.73,14.73,0,0,1-1.47-3.41c-.38-1.28-.69-2.56-1-3.84s-.44-2.51-.57-3.7-.22-2.2-.28-3q-.42-4.41-.59-9t-.17-9q0-12.18.85-24.12a3.46,3.46,0,0,1,0-.43c0-.16,0-.31,0-.47,0-.67.07-1.43.1-2.3s.08-1.73.14-2.58.13-1.64.21-2.35a5.45,5.45,0,0,1,.31-1.49v.05a2.29,2.29,0,0,1,.52-1A1.58,1.58,0,0,1,36.82,28a4,4,0,0,1,2.89,1.14A3.75,3.75,0,0,1,40.89,32c0,.25,0,.5,0,.73s0,.47-.07.69-.06.44-.07.64,0,.39,0,.55c-.09,1.23-.16,2.45-.21,3.67s-.1,2.44-.16,3.67Q40.09,46,40,50.08t-.12,8.17c0,1.17,0,2.7,0,4.6S40,66.8,40.09,69s.23,4.53.4,6.9.4,4.62.69,6.77.62,4.09,1,5.83a15,15,0,0,0,1.4,4,2.73,2.73,0,0,1,.82.59,5.27,5.27,0,0,1,.72.9,7.76,7.76,0,0,1,.52,1A2.9,2.9,0,0,1,45.87,96.11Z"/><path class="cls-3" d="M67.76,75.31a49.39,49.39,0,0,1-.69,8.22,22.53,22.53,0,0,1-2.81,7.75,17.83,17.83,0,0,1-1.52,2.11,14.21,14.21,0,0,1-1.87,1.85,8.81,8.81,0,0,1-2.23,1.32,7,7,0,0,1-6.16-.47,9.21,9.21,0,0,1-2.65-2.56A15.26,15.26,0,0,1,48,89.93a26.76,26.76,0,0,1-1.14-4.12,39.11,39.11,0,0,1-.57-4.1c-.11-1.33-.16-2.5-.16-3.51s0-2.38.14-3.74a41.49,41.49,0,0,1,.5-4.17,38.33,38.33,0,0,1,.94-4.22,21.35,21.35,0,0,1,1.54-3.91,15,15,0,0,1,2.28-3.27,10.23,10.23,0,0,1,3.08-2.3v0a6.38,6.38,0,0,1,3-.81,2.36,2.36,0,0,1,1.47.41,1.48,1.48,0,0,1,.47,1.35,6.69,6.69,0,0,1,4.22,2.51,15.29,15.29,0,0,1,2.49,4.74,27.47,27.47,0,0,1,1.18,5.54A45.55,45.55,0,0,1,67.76,75.31ZM57.05,63.46a2.27,2.27,0,0,1-1.51-.61A14,14,0,0,0,54,66a26.12,26.12,0,0,0-1,3.65,34.26,34.26,0,0,0-.5,3.76c-.09,1.27-.14,2.45-.14,3.56,0,.92.05,2.09.14,3.53a38,38,0,0,0,.55,4.33,21.76,21.76,0,0,0,1.13,4.08,6.27,6.27,0,0,0,1.92,2.8A6.5,6.5,0,0,0,58.59,89a19,19,0,0,0,1.54-4.1,28.62,28.62,0,0,0,.78-4.5c.15-1.52.22-2.81.22-3.89,0-.78-.05-1.81-.14-3.08s-.26-2.55-.48-3.86a23.16,23.16,0,0,0-.92-3.67,6.51,6.51,0,0,0-1.49-2.56A3.26,3.26,0,0,1,57.05,63.46Z"/><path class="cls-3" d="M79,94.5a1.44,1.44,0,0,1-.64,1.42,3.31,3.31,0,0,1-1.54.33,11.87,11.87,0,0,1-1.58-.11,5,5,0,0,1-1.47-.45,3.94,3.94,0,0,1-1.19-.9,3.24,3.24,0,0,1-.69-1.47,28.83,28.83,0,0,1-.75-5.57c-.07-1.82-.1-3.69-.1-5.62V76.31c0-2.66.11-5.41.33-8.27s.46-5.62.71-8.27a1.39,1.39,0,0,1,.05-.33,1.58,1.58,0,0,0,0-.29c0-.35.08-.73.14-1.14a4.5,4.5,0,0,1,.31-1.11,2.14,2.14,0,0,1,.62-.83,1.6,1.6,0,0,1,1.06-.33,3.44,3.44,0,0,1,1.45.31,4.32,4.32,0,0,1,1.21.8,3.7,3.7,0,0,1,.82,1.21,3.63,3.63,0,0,1,.31,1.47c0,.54,0,1.13,0,1.78s-.07,1.25-.14,1.82c0,.16,0,.33,0,.52s0,.37-.07.52c.44-.88,1-1.8,1.51-2.77a15.72,15.72,0,0,1,2-2.65,10,10,0,0,1,2.46-2,6.14,6.14,0,0,1,3-.76,5.39,5.39,0,0,1,2.28.43,3.55,3.55,0,0,1,1.44,1.21,4.72,4.72,0,0,1,.76,1.82,11.32,11.32,0,0,1,.22,2.23c0,1.07,0,2.16-.1,3.25s-.13,2.17-.19,3.24-.17,2.2-.24,3.27-.09,2.17-.09,3.27c0,1.33,0,2.7.09,4.1s.16,2.75.29,4,.27,2.43.42,3.46a22,22,0,0,0,.48,2.39c.12.47.26,1,.4,1.64s.29,1.24.43,1.89.26,1.27.35,1.87a9.93,9.93,0,0,1,.15,1.61,1.25,1.25,0,0,1-.83,1.33,5,5,0,0,1-1.64.28,18,18,0,0,1-1.82-.11,5.29,5.29,0,0,1-1.83-.55,3.29,3.29,0,0,1-1.3-2,15,15,0,0,1-.4-2.51l-.15-1.28c-.09-.76-.22-1.75-.37-3s-.31-2.59-.45-4.07-.27-3-.36-4.62-.14-3.15-.14-4.67c0-1.36,0-2.67.16-3.93s.23-2.54.36-3.84c.06-.66.11-1.2.14-1.61s.08-1,.14-1.61a32.7,32.7,0,0,0-1.89,3.55q-.94,2-1.8,4.24c-.57,1.47-1.09,2.9-1.54,4.29s-.82,2.61-1.07,3.65l-.28,1c-.16.51-.3,1-.41,1.52a6.64,6.64,0,0,0-.16,1.42c0,.57,0,1.23.09,2s.14,1.44.24,2.11.2,1.59.33,2.41a4.73,4.73,0,0,0,.1.62c.06.35.12.76.19,1.23s.11,1,.16,1.49S79,94.09,79,94.5Z"/><path class="cls-3" d="M142.44,90.85a8.72,8.72,0,0,1-.16,1.69,4.2,4.2,0,0,1-.57,1.46,3,3,0,0,1-1.07,1,3.32,3.32,0,0,1-1.7.38,3.59,3.59,0,0,1-2.07-.54,5.81,5.81,0,0,1-1.44-1.54,15.9,15.9,0,0,1-1.61-3c-.48-1.13-.9-2.28-1.28-3.46s-.74-2.37-1.07-3.56-.65-2.28-1-3.29q-2.55-8-4.76-15.88T121,48.3q-.22,10.29-.35,20.47t-.12,20.47c0,.35,0,.74,0,1.19a5.54,5.54,0,0,1-.23,1.25,2.6,2.6,0,0,1-.6,1,1.48,1.48,0,0,1-1.11.43,4.85,4.85,0,0,1-3.67-1.31,5.12,5.12,0,0,1-1.26-3.72q0-13.3.05-26.39t0-26.3V28.68a3.74,3.74,0,0,1,.4-1.82c.27-.49.86-.74,1.78-.74a7.79,7.79,0,0,1,1.94.26,6.11,6.11,0,0,1,1.78.79,4.14,4.14,0,0,1,1.28,1.35,3.73,3.73,0,0,1,.49,2,53.13,53.13,0,0,1,3.34,7.82q1.35,4,2.63,8.1,1.86,5.93,3.65,11.85t3.65,11.94q-.28-9-.59-17.89t-1.21-17.84c-.16-1.29-.34-2.56-.54-3.79a22.46,22.46,0,0,1-.31-3.79,1.4,1.4,0,0,1,.66-1.35,3.13,3.13,0,0,1,1.52-.35,11.42,11.42,0,0,1,2.51.23,4.29,4.29,0,0,1,1.75.81,3.51,3.51,0,0,1,1.09,1.54,12.47,12.47,0,0,1,.62,2.44c.19,1.7.34,3.42.45,5.14s.21,3.42.31,5.09q.42,6.36.61,12.61t.33,12.6q.15,6.31.36,12.58T142.44,90.85Z"/><path class="cls-3" d="M166.23,98c0,1.3,0,2.65-.14,4.08s-.26,2.85-.48,4.28a38.2,38.2,0,0,1-.9,4.25,23.38,23.38,0,0,1-1.42,3.88,17.86,17.86,0,0,1-3.58,4.67,22.35,22.35,0,0,1-4.71,3.39,23.26,23.26,0,0,1-5.45,2.08,24,24,0,0,1-5.83.71,10.13,10.13,0,0,1-1,0,5.77,5.77,0,0,1-1.16-.21,2.23,2.23,0,0,1-.95-.54,1.43,1.43,0,0,1-.37-1,1.16,1.16,0,0,1,.14-.56.79.79,0,0,1,0-.17.3.3,0,0,0,0-.12,6.13,6.13,0,0,1,.76-1.52,3.29,3.29,0,0,1,1-.87,3.79,3.79,0,0,1,1.28-.43c.49-.08,1.05-.15,1.69-.21a15,15,0,0,0,5.73-1.42v0a13.92,13.92,0,0,0,4.86-3.76,16.71,16.71,0,0,0,2.7-5,24,24,0,0,0,1.16-5.76q.24-3,.24-6.11V95.35c0-.22,0-.56,0-1a5.62,5.62,0,0,1-3.46,1.28,5.47,5.47,0,0,1-3.53-1.16,9.21,9.21,0,0,1-2.42-3,17.58,17.58,0,0,1-1.51-4.27,39.11,39.11,0,0,1-.81-4.88c-.17-1.66-.28-3.27-.33-4.85s-.07-3-.07-4.22v-2c0-1.68,0-3.32,0-4.93s.07-3.22.17-4.83V59.58a6.41,6.41,0,0,1,.09-1.09,2.18,2.18,0,0,1,.55-1.09,1.66,1.66,0,0,1,1.16-.33,5.74,5.74,0,0,1,.73,0,7.47,7.47,0,0,1,.74.15,6.31,6.31,0,0,1,1.42.78,2.52,2.52,0,0,1,.78,1,3.89,3.89,0,0,1,.33,1.25,16.16,16.16,0,0,1,.07,1.66v6.35q0,1.14,0,2.82c0,1.12.05,2.34.11,3.67s.15,2.7.24,4.12.24,2.8.43,4.13.41,2.54.66,3.65a11.31,11.31,0,0,0,1,2.74,24,24,0,0,0,1.47-4.33,53.84,53.84,0,0,0,1-5.36c.27-1.91.47-3.87.61-5.9s.26-4,.33-5.92.13-3.75.15-5.47,0-3.23,0-4.53c0-.31,0-.65,0-1a2.87,2.87,0,0,1,.22-1,1.85,1.85,0,0,1,.54-.74,1.69,1.69,0,0,1,1.07-.28,3.37,3.37,0,0,1,.73.09l.69.19.21,0,.22,0,1.28.47a4,4,0,0,1,1.06.6,2.35,2.35,0,0,1,.71.92,3.46,3.46,0,0,1,.26,1.47c0,.73,0,1.56,0,2.49s-.05,1.9-.09,2.91-.11,2-.17,3-.13,1.83-.19,2.59L166,71.23c-.06.45-.11.89-.14,1.33s-.05.85-.05,1.23c0,2,0,4,.05,6s.08,4,.14,6,.11,4,.14,6S166.23,95.94,166.23,98Z"/><path class="cls-3" d="M195.28,83A3.13,3.13,0,0,1,195,84.1a11.05,11.05,0,0,1-.67,1.33c-.27.46-.56.92-.87,1.39s-.62.91-.9,1.28l-.71,1-.71,1.23-.62,1.14c0,.63.08,1.31.14,2s.13,1.42.19,2.08q.52,4.88.92,10t.41,9.95a33,33,0,0,1-.43,5.29,14.93,14.93,0,0,1-1.59,4.83,9.83,9.83,0,0,1-3.19,3.53,9.13,9.13,0,0,1-5.22,1.37,7.74,7.74,0,0,1-3.69-.8,6.72,6.72,0,0,1-2.44-2.16,9.16,9.16,0,0,1-1.35-3.15,15.89,15.89,0,0,1-.43-3.74,34.72,34.72,0,0,1,.9-7.77,58.28,58.28,0,0,1,2.35-7.77,75.9,75.9,0,0,1,3.29-7.51q1.84-3.67,3.74-7v-.21a2.07,2.07,0,0,0,0-.41c-.41.76-.87,1.54-1.39,2.35a12.39,12.39,0,0,1-1.76,2.15A9,9,0,0,1,178.81,96a5.4,5.4,0,0,1-2.58.61,5.59,5.59,0,0,1-3.32-.94,7,7,0,0,1-2.11-2.42,11.25,11.25,0,0,1-1.11-3.22,18,18,0,0,1-.33-3.32,29.81,29.81,0,0,1,.21-3.55c.14-1.17.31-2.31.5-3.42.31-1.76.72-3.68,1.21-5.75a57,57,0,0,1,1.82-6.16,41.8,41.8,0,0,1,2.54-5.76,18.83,18.83,0,0,1,3.38-4.6l.38-.33A12.77,12.77,0,0,1,180.83,56a2.78,2.78,0,0,1,1.65-.59,1.65,1.65,0,0,1,.93.28,2.42,2.42,0,0,1,.68.74,4.09,4.09,0,0,1,.45,1,3,3,0,0,1,.17,1,2.29,2.29,0,0,1-.43,1.23h.1a3.79,3.79,0,0,1,3.88,2.65,3.12,3.12,0,0,1,.79,1.14,3.93,3.93,0,0,1,.26,1.42c0,.25,0,.53-.05.83a6.23,6.23,0,0,1-.14.83,6.42,6.42,0,0,0-.14.8,4.59,4.59,0,0,0,0,.72c0,.72,0,1.62,0,2.7s.07,2.19.14,3.36.13,2.32.21,3.44.15,2.09.21,2.91a4.08,4.08,0,0,1,.79-.76,1.74,1.74,0,0,1,1.06-.33,2.62,2.62,0,0,1,1.21.38,6.07,6.07,0,0,1,1.28,1,6.63,6.63,0,0,1,1,1.21A2.27,2.27,0,0,1,195.28,83Zm-13-19.53c0-.19,0-.39,0-.61a5,5,0,0,1,.12-.71l-.33.42-.71.81a8.12,8.12,0,0,0-.62.8,18.37,18.37,0,0,0-2.16,4.67,53.47,53.47,0,0,0-1.54,6c-.41,2.1-.71,4.16-.92,6.18a51.51,51.51,0,0,0-.31,5.22c0,.72,0,1.45,0,2.18a6.43,6.43,0,0,0,.47,2.13A6.65,6.65,0,0,0,177.41,89c.29-.55.56-1.13.81-1.73a32.8,32.8,0,0,0,1.8-5.4c.5-2.06.92-4.17,1.23-6.35s.55-4.32.71-6.42S182.21,65.14,182.25,63.46Zm3.6,50.61q0-3.22-.14-6t-.43-6q-.85,2-1.73,4.38c-.59,1.57-1.1,3.14-1.54,4.74s-.81,3.18-1.09,4.76a25.87,25.87,0,0,0-.43,4.5v.34a19.88,19.88,0,0,0,.15,2.34,3.4,3.4,0,0,0,.9,2.06h.52a2.12,2.12,0,0,0,1.58-.64,5,5,0,0,0,1.07-1.63,10.22,10.22,0,0,0,.66-2.23,23.08,23.08,0,0,0,.34-2.46c.06-.82.1-1.6.11-2.32S185.85,114.51,185.85,114.07Z"/><path class="cls-3" d="M200.92,95.5a7.27,7.27,0,0,1-1.54-.19,5.78,5.78,0,0,1-1.57-.62,4.1,4.1,0,0,1-1.23-1.07,2.41,2.41,0,0,1-.5-1.54c0-.88,0-1.76.12-2.62s.17-1.73.26-2.59v0l.29-3.18c.09-1.13.17-2.38.23-3.74s.12-2.74.17-4.15.09-2.78.12-4.14,0-2.61,0-3.74c0-.67,0-1.34,0-2s0-1.37,0-2.06-.05-1.27-.05-2V59.81a4.45,4.45,0,0,1,.26-1.63c.17-.43.67-.64,1.49-.64a5.37,5.37,0,0,1,2.3.57A3.27,3.27,0,0,1,203,59.72h0a6.21,6.21,0,0,1,.35,1.68c.08.78.14,1.46.17,2.06.53-.82,1.14-1.69,1.82-2.6a21.64,21.64,0,0,1,2.21-2.54A12.5,12.5,0,0,1,210,56.4a5.67,5.67,0,0,1,2.84-.76,4.22,4.22,0,0,1,3,1,5.75,5.75,0,0,1,1.52,2.49,11.25,11.25,0,0,1,.52,3.17c0,1.12.05,2.14.05,3.06v.38q0,.57,0,1.11a3.12,3.12,0,0,1-.18,1,1.64,1.64,0,0,1-.57.73,1.91,1.91,0,0,1-1.12.29,6.82,6.82,0,0,1-1.61-.22,5.82,5.82,0,0,1-1.59-.64A4.57,4.57,0,0,1,211.58,67a2.53,2.53,0,0,1-.57-1.5V64.7a6.33,6.33,0,0,1,.05-.76c0-.16,0-.36,0-.59s0-.47,0-.69a15.09,15.09,0,0,0-2.67,3.74,40.87,40.87,0,0,0-2.09,4.74c-.61,1.67-1.14,3.36-1.59,5s-.82,3.21-1.13,4.57v.14c-.1,1-.16,1.94-.19,2.89s-.07,1.93-.1,2.94-.07,2.29-.12,3.46-.13,2.31-.26,3.41a2.38,2.38,0,0,1-.54,1.4A1.94,1.94,0,0,1,200.92,95.5Z"/><path class="cls-3" d="M238.21,86.07a6.4,6.4,0,0,1-.78,2.93,11.36,11.36,0,0,1-2,2.78,10.89,10.89,0,0,1-2.82,2.06,6.94,6.94,0,0,1-3.15.8,8,8,0,0,1-3.84-.87,9.28,9.28,0,0,1-2.79-2.37A13.07,13.07,0,0,1,220.89,88a24.79,24.79,0,0,1-1.16-3.91,30.83,30.83,0,0,1-.59-4c-.11-1.34-.17-2.56-.17-3.67,0-1,.06-2.07.17-3.36a37.88,37.88,0,0,1,.57-4,28.51,28.51,0,0,1,1.11-4.12,16.09,16.09,0,0,1,1.78-3.65,9.08,9.08,0,0,1,2.55-2.61,6.09,6.09,0,0,1,3.44-1,5.89,5.89,0,0,1,2.72.62,6.19,6.19,0,0,1,2,1.64,7.58,7.58,0,0,1,1.28,2.34,8.52,8.52,0,0,1,.45,2.75,11.09,11.09,0,0,1-.85,4A22.59,22.59,0,0,1,229,76.9a14.11,14.11,0,0,1-3.34,2.49c.07.56.19,1.39.38,2.48a26.47,26.47,0,0,0,.78,3.25A13.68,13.68,0,0,0,228,87.91a2,2,0,0,0,1.63,1.19,1.27,1.27,0,0,0,.83-.29,2.66,2.66,0,0,0,.64-.75,6.37,6.37,0,0,0,.5-1c.14-.37.28-.74.4-1.09l.29-.66a1.14,1.14,0,0,0,.11-.19s0-.08.08-.14c.22-.41.43-.79.64-1.14a2.75,2.75,0,0,1,.87-.9h-.05a.71.71,0,0,1,.41-.21l.4,0a2.46,2.46,0,0,1,1.14.34,4.77,4.77,0,0,1,1.13.83,4.45,4.45,0,0,1,.86,1.09A2.36,2.36,0,0,1,238.21,86.07Zm-9.38-20.9c0-.32,0-.65-.05-1a2.48,2.48,0,0,0-.24-.9,8.51,8.51,0,0,0-1.16,1.92,16.5,16.5,0,0,0-.83,2.33A24.62,24.62,0,0,0,226,70c-.14.82-.25,1.58-.31,2.27a17.34,17.34,0,0,0,2.18-3.34A8.22,8.22,0,0,0,228.83,65.17Z"/><path class="cls-3" d="M248.21,94.5a1.45,1.45,0,0,1-.64,1.42,3.33,3.33,0,0,1-1.54.33,11.9,11.9,0,0,1-1.59-.11,5.23,5.23,0,0,1-1.47-.45,3.9,3.9,0,0,1-1.18-.9,3.24,3.24,0,0,1-.69-1.47,28.87,28.87,0,0,1-.76-5.57c-.06-1.82-.09-3.69-.09-5.62V76.31c0-2.66.11-5.41.33-8.27s.46-5.62.71-8.27a1.39,1.39,0,0,1,.05-.33,1.37,1.37,0,0,0,0-.29c0-.35.08-.73.15-1.14a4.5,4.5,0,0,1,.3-1.11,2.24,2.24,0,0,1,.62-.83,1.63,1.63,0,0,1,1.07-.33,3.42,3.42,0,0,1,1.44.31,4.18,4.18,0,0,1,1.21.8,3.72,3.72,0,0,1,.83,1.21,3.8,3.8,0,0,1,.31,1.47c0,.54,0,1.13-.05,1.78s-.08,1.25-.14,1.82a5,5,0,0,1,0,.52,3.64,3.64,0,0,1-.07.52c.45-.88.95-1.8,1.52-2.77a15.19,15.19,0,0,1,2-2.65,10,10,0,0,1,2.46-2,6.09,6.09,0,0,1,3-.76,5.34,5.34,0,0,1,2.27.43,3.58,3.58,0,0,1,1.45,1.21,5,5,0,0,1,.76,1.82,11.33,11.33,0,0,1,.21,2.23c0,1.07,0,2.16-.09,3.25s-.13,2.17-.19,3.24-.18,2.2-.24,3.27-.1,2.17-.1,3.27c0,1.33,0,2.7.1,4.1s.16,2.75.28,4,.27,2.43.43,3.46.32,1.82.47,2.39.26,1,.41,1.64.28,1.24.42,1.89.26,1.27.36,1.87a11.07,11.07,0,0,1,.14,1.61,1.25,1.25,0,0,1-.83,1.33,5,5,0,0,1-1.63.28,18.17,18.17,0,0,1-1.83-.11,5.17,5.17,0,0,1-1.82-.55,3.3,3.3,0,0,1-1.31-2,16.15,16.15,0,0,1-.4-2.51l-.14-1.28c-.1-.76-.22-1.75-.38-3s-.31-2.59-.45-4.07-.26-3-.35-4.62-.15-3.15-.15-4.67c0-1.36.06-2.67.17-3.93s.23-2.54.35-3.84c.07-.66.11-1.2.15-1.61s.07-1,.14-1.61a32.64,32.64,0,0,0-1.9,3.55q-.94,2-1.8,4.24c-.57,1.47-1.08,2.9-1.54,4.29s-.81,2.61-1.06,3.65l-.29,1c-.16.51-.29,1-.4,1.52a6.69,6.69,0,0,0-.17,1.42c0,.57,0,1.23.1,2s.14,1.44.23,2.11.21,1.59.34,2.41a6,6,0,0,0,.09.62c.06.35.13.76.19,1.23s.12,1,.17,1.49S248.21,94.09,248.21,94.5Z"/></g></g></svg>